<svg width="101" height="102" viewBox="0 0 101 102" fill="none" xmlns="http://www.w3.org/2000/svg">
<path d="M4.05072 31.3123C7.15501 24.0194 11.9486 17.5689 18.0362 12.493C24.1238 7.41702 31.331 3.86106 39.0632 2.11838L41.2618 11.8737C35.076 13.2678 29.3103 16.1126 24.4403 20.1733C19.5702 24.2341 15.7353 29.3945 13.2519 35.2288L4.05072 31.3123Z" fill="#3E0190"/>
<path d="M39.2367 2.39465C50.2051 -0.056005 61.6796 1.26023 71.8082 6.13095C81.9368 11.0017 90.1292 19.1429 95.0632 29.2409C99.9973 39.3388 101.385 50.8047 99.0034 61.7884C96.6214 72.772 90.6084 82.6329 81.9346 89.7798C73.2608 96.9267 62.4319 100.943 51.1955 101.18C39.9591 101.418 28.9702 97.8626 20.0022 91.0884C11.0343 84.3143 4.61004 74.7162 1.76628 63.843C-1.07749 52.9698 -0.175011 41.4554 4.32806 31.1581L13.4903 35.1648C9.88783 43.4026 9.16585 52.6141 11.4409 61.3127C13.7159 70.0112 18.8553 77.6897 26.0296 83.109C33.204 88.5284 41.9951 91.3725 50.9842 91.1826C59.9733 90.9927 68.6365 87.7797 75.5755 82.0621C82.5145 76.3446 87.325 68.4559 89.2305 59.669C91.1361 50.8821 90.0257 41.7093 86.0784 33.631C82.1312 25.5526 75.5773 19.0396 67.4744 15.1431C59.3715 11.2465 50.1919 10.1935 41.4172 12.154L39.2367 2.39465Z" fill="#BBFFE8"/>
</svg>
