<svg width="101" height="101" viewBox="0 0 101 101" fill="none" xmlns="http://www.w3.org/2000/svg">
<path d="M4.81378 31.2368C5.53069 29.5525 6.33956 27.9089 7.23672 26.3133L15.9533 31.2145C15.2355 32.491 14.5884 33.8059 14.0149 35.1533L4.81378 31.2368Z" fill="#3E0190"/>
<path d="M7.20515 26.3695C13.5767 15.0037 24.1335 6.57414 36.6275 2.87574C49.1215 -0.822661 62.5657 0.502306 74.0974 6.56851C85.6291 12.6347 94.3372 22.9629 98.3675 35.3539C102.398 47.7448 101.432 61.2196 95.6753 72.909C89.9188 84.5983 79.8265 93.5788 67.5475 97.9381C55.2684 102.297 41.7726 101.691 29.9339 96.2483C18.0952 90.8056 8.8488 80.9564 4.1636 68.798C-0.521602 56.6395 -0.275452 43.1324 4.84963 31.1527L14.0436 35.0861C9.94353 44.6698 9.74661 55.4755 13.4948 65.2022C17.2429 74.929 24.64 82.8083 34.111 87.1625C43.582 91.5167 54.3786 92.0017 64.2019 88.5143C74.0251 85.0269 82.0989 77.8425 86.7042 68.491C91.3094 59.1395 92.0821 48.3597 88.8579 38.447C85.6337 28.5342 78.6672 20.2716 69.4418 15.4187C60.2165 10.5657 49.4611 9.50574 39.4659 12.4645C29.4707 15.4232 21.0253 22.1668 15.928 31.2595L7.20515 26.3695Z" fill="#BBFFE8"/>
</svg>
