<svg width="101" height="101" viewBox="0 0 101 101" fill="none" xmlns="http://www.w3.org/2000/svg">
<path d="M4.81378 31.2369C8.63312 22.264 14.993 14.6039 23.1105 9.19962C31.2279 3.79531 40.7485 0.882741 50.5002 0.820478C60.2519 0.758214 69.809 3.54898 77.9948 8.84919C86.1805 14.1494 92.6377 21.7277 96.5713 30.651C100.505 39.5744 101.743 49.4532 100.134 59.0714C98.5244 68.6896 94.1374 77.6272 87.5131 84.7838C80.8888 91.9404 72.3162 97.0037 62.8509 99.3503C53.3855 101.697 43.4406 101.224 34.2404 97.9908L37.5562 88.5565C44.9163 91.1434 52.8723 91.5214 60.4446 89.6441C68.0169 87.7669 74.8749 83.7162 80.1744 77.9909C85.4738 72.2656 88.9834 65.1155 90.271 57.421C91.5585 49.7265 90.5679 41.8234 87.421 34.6847C84.2741 27.546 79.1083 21.4834 72.5597 17.2432C66.0111 13.0031 58.3654 10.7705 50.5641 10.8203C42.7627 10.8701 35.1462 13.2001 28.6523 17.5236C22.1583 21.847 17.0704 27.9751 14.0149 35.1534L4.81378 31.2369Z" fill="#3E0190"/>
<path d="M35.4044 98.5055C28.8499 96.3538 22.8117 92.8689 17.6694 88.2702C12.5271 83.6715 8.39211 78.0584 5.52448 71.7841C2.65685 65.5097 1.11864 58.7098 1.0066 51.8121C0.894553 44.9143 2.21111 38.0681 4.87345 31.7039L14.0988 35.5631C11.9689 40.6544 10.9156 46.1315 11.0053 51.6496C11.0949 57.1678 12.3255 62.6077 14.6196 67.6272C16.9137 72.6467 20.2217 77.1372 24.3355 80.8162C28.4493 84.4952 33.2799 87.283 38.5235 89.0044L35.4044 98.5055Z" fill="#BBFFE8"/>
</svg>
