<svg width="960" height="140" viewBox="0 0 960 140" fill="none" xmlns="http://www.w3.org/2000/svg">
<path d="M5 2.95698C5 1.57626 3.88072 0.456976 2.5 0.456977C1.11929 0.456976 3.56309e-06 1.57626 3.46932e-06 2.95698L5 2.95698ZM958.768 123.046C959.744 122.069 959.744 120.486 958.768 119.51L942.858 103.6C941.881 102.624 940.299 102.624 939.322 103.6C938.346 104.576 938.346 106.159 939.322 107.136L953.464 121.278L939.322 135.42C938.346 136.396 938.346 137.979 939.322 138.955C940.299 139.932 941.881 139.932 942.858 138.955L958.768 123.046ZM120.821 123.778L957 123.778L957 118.778L120.821 118.778L120.821 123.778ZM3.46932e-06 2.95698C3.72504e-06 69.6845 54.0933 123.778 120.821 123.778L120.821 118.778C56.8547 118.778 5 66.923 5 2.95698L3.46932e-06 2.95698Z" fill="#00DE93"/>
</svg>
