<svg width="30" height="30" viewBox="0 0 30 30" fill="none" xmlns="http://www.w3.org/2000/svg">
<path fill-rule="evenodd" clip-rule="evenodd" d="M15 0C23.2849 0 30 6.71514 30 15C30 23.2849 23.2849 30 15 30C6.71514 30 0 23.2849 0 15C0 6.71514 6.71514 0 15 0Z" fill="#F0B90B"/>
<path d="M8.24399 15L8.25481 18.9664L11.625 20.9495V23.2716L6.28245 20.1382V13.8402L8.24399 15ZM8.24399 11.0337V13.345L6.28125 12.1839V9.87261L8.24399 8.71155L10.2163 9.87261L8.24399 11.0337ZM13.0325 9.87261L14.9952 8.71155L16.9675 9.87261L14.9952 11.0337L13.0325 9.87261Z" fill="white"/>
<path d="M9.66226 18.1442V15.8221L11.625 16.9832V19.2945L9.66226 18.1442ZM13.0325 21.7813L14.9952 22.9423L16.9675 21.7813V24.0926L14.9952 25.2536L13.0325 24.0926V21.7813ZM19.7825 9.87261L21.7452 8.71155L23.7176 9.87261V12.1839L21.7452 13.345V11.0337L19.7825 9.87261ZM21.7452 18.9664L21.756 15L23.7188 13.839V20.137L18.3762 23.2704V20.9483L21.7452 18.9664Z" fill="white"/>
<path d="M20.3377 18.1443L18.375 19.2945V16.9832L20.3377 15.8221V18.1443Z" fill="white"/>
<path d="M20.3377 11.8557L20.3486 14.1778L16.9688 16.161V20.137L15.006 21.2872L13.0433 20.137V16.161L9.66346 14.1778V11.8557L11.6346 10.6947L14.994 12.6874L18.3738 10.6947L20.3462 11.8557H20.3377ZM9.66226 7.89057L14.9952 4.74634L20.3377 7.89057L18.375 9.05163L14.9952 7.05884L11.625 9.05163L9.66226 7.89057Z" fill="white"/>
</svg>
