<svg width="200" height="299" viewBox="0 0 200 299" fill="none" xmlns="http://www.w3.org/2000/svg">
<path d="M270.304 184.646L270.228 184.897C270.073 185.415 269.913 185.949 269.742 186.463C269.572 187.029 269.382 187.604 269.197 188.165C269.026 188.679 268.835 189.204 268.664 189.718C268.465 190.274 268.259 190.846 268.059 191.403C267.873 191.912 267.682 192.437 267.496 192.946C267.276 193.513 267.061 194.065 266.829 194.612C266.639 195.137 266.438 195.642 266.221 196.141C266.006 196.693 265.775 197.241 265.528 197.783C265.322 198.303 265.106 198.803 264.873 199.298C264.643 199.845 264.391 200.404 264.13 200.942C263.914 201.442 263.667 201.932 263.43 202.444C263.168 202.981 262.907 203.52 262.625 204.069C262.393 204.564 262.141 205.071 261.879 205.557C261.618 206.094 261.326 206.624 261.049 207.157C260.787 207.643 260.52 208.145 260.242 208.627C259.961 209.176 259.653 209.699 259.361 210.229C259.078 210.726 258.8 211.208 258.508 211.685C258.195 212.224 257.873 212.744 257.551 213.264C257.268 213.761 256.975 214.238 256.666 214.711C256.344 215.23 256.002 215.761 255.664 216.276C255.356 216.749 255.042 217.237 254.718 217.705C254.381 218.219 254.027 218.73 253.674 219.24C253.35 219.708 253.007 220.187 252.667 220.65C252.314 221.16 251.942 221.682 251.557 222.184C251.213 222.663 250.859 223.121 250.505 223.58C250.132 224.101 249.733 224.598 249.333 225.095C248.979 225.553 248.605 226.023 248.251 226.482C247.836 226.974 247.417 227.481 247.003 227.974C246.618 228.423 246.229 228.889 245.844 229.338C245.414 229.826 244.985 230.313 244.556 230.801C244.151 231.261 243.751 231.706 243.335 232.146C242.886 232.645 242.426 233.123 241.965 233.602C241.545 234.058 241.13 234.498 240.684 234.929C240.219 235.423 239.743 235.897 239.253 236.366C238.822 236.802 238.371 237.249 237.91 237.675C237.419 238.145 236.908 238.624 236.418 239.094C235.941 239.516 235.46 239.954 234.983 240.376C234.462 240.835 233.94 241.296 233.404 241.751C232.923 242.189 232.431 242.606 231.925 243.019C231.368 243.486 230.816 243.937 230.249 244.383C229.737 244.811 229.215 245.22 228.676 245.623C228.105 246.085 227.522 246.527 226.925 246.964C226.387 247.367 225.844 247.787 225.291 248.186C224.679 248.618 224.061 249.066 223.433 249.494C222.844 249.9 222.261 250.29 221.677 250.68C221.044 251.123 220.39 251.526 219.731 251.945C219.127 252.346 218.513 252.726 217.899 253.107C217.205 253.532 216.516 253.941 215.826 254.351C215.177 254.739 214.532 255.11 213.856 255.472C213.147 255.893 212.411 256.288 211.661 256.68C210.965 257.054 210.27 257.427 209.569 257.764C208.798 258.167 208.017 258.548 207.241 258.915C206.515 259.279 205.763 259.619 205.027 259.963C204.195 260.346 203.353 260.71 202.51 261.074C201.723 261.42 200.926 261.746 200.113 262.067C199.221 262.432 198.317 262.777 197.398 263.118C196.534 263.441 195.67 263.764 194.801 264.051C193.812 264.405 192.832 264.727 191.842 265.03C190.897 265.346 189.946 265.625 189.002 265.889C187.925 266.2 186.853 266.494 185.772 266.769C184.72 267.052 183.678 267.306 182.61 267.533C181.407 267.822 180.197 268.076 178.993 268.314C177.793 268.536 176.593 268.758 175.388 268.944C173.985 269.174 172.578 269.368 171.175 269.546C169.756 269.72 168.342 269.877 166.927 269.984C165.215 270.138 163.501 270.24 161.781 270.306C159.991 270.385 158.185 270.408 156.388 270.4C145.883 270.312 135.219 268.756 124.686 265.595C114.153 262.435 104.394 257.863 95.5758 252.152C94.0711 251.17 92.5757 250.156 91.1245 249.105C89.7253 248.103 88.3509 247.074 87.0063 246.002C85.888 245.119 84.7903 244.224 83.7016 243.299C82.6287 242.377 81.5595 241.44 80.5162 240.476C79.6118 239.658 78.7332 238.812 77.8538 237.966C76.9792 237.104 76.1091 236.226 75.2649 235.322C74.5141 234.549 73.767 233.76 73.0456 232.944C72.2934 232.119 71.5612 231.283 70.8338 230.432C70.1899 229.69 69.5551 228.918 68.9352 228.15C68.2744 227.352 67.6392 226.528 67.0187 225.708C66.4505 224.99 65.8927 224.241 65.3495 223.495C64.7854 222.71 64.2216 221.924 63.6623 221.123C63.1756 220.412 62.6888 219.701 62.2077 218.974C61.7048 218.207 61.2169 217.444 60.7344 216.666C60.2885 215.984 59.8686 215.276 59.4478 214.568C59.0008 213.834 58.5592 213.085 58.1378 212.325C57.7433 211.642 57.3634 210.963 56.9884 210.269C56.5924 209.534 56.1967 208.798 55.8203 208.052C55.4714 207.382 55.1226 206.712 54.7932 206.031C54.4432 205.309 54.093 204.588 53.7475 203.851C53.4444 203.195 53.1413 202.539 52.8584 201.872C52.5392 201.161 52.2301 200.468 51.9303 199.745C51.6582 199.098 51.3853 198.451 51.1179 197.789C50.8444 197.091 50.5601 196.372 50.3015 195.678C50.0596 195.04 49.8225 194.387 49.596 193.754C49.3527 193.065 49.1296 192.364 48.8874 191.675L48.8921 191.659C41.1102 168.726 40.1507 143.046 47.711 117.85C55.2761 92.6387 70.2201 71.7134 89.3469 56.8383C89.7396 56.5284 90.1279 56.2336 90.5206 55.9237C91.1187 55.4871 91.7206 55.0343 92.3189 54.5968C92.8718 54.1978 93.4451 53.7876 94.0135 53.3933C94.631 52.9451 95.2592 52.5176 95.9032 52.0938C96.4919 51.6882 97.0905 51.303 97.6891 50.9177C98.3377 50.4789 98.9961 50.0604 99.65 49.657C100.284 49.2651 100.913 48.8889 101.543 48.513C102.237 48.0879 102.942 47.6833 103.662 47.2824C104.322 46.9155 105.002 46.5373 105.662 46.1704C106.402 45.759 107.152 45.3682 107.919 44.9812C108.629 44.6121 109.335 44.2591 110.056 43.9106C110.842 43.5129 111.634 43.1509 112.43 42.7738C113.182 42.4346 113.938 42.0792 114.706 41.7446C115.568 41.3699 116.441 41.0158 117.299 40.6562C118.116 40.3192 118.945 40.003 119.757 39.6819C120.696 39.3303 121.615 38.9899 122.564 38.6577C123.442 38.339 124.332 38.041 125.236 37.7475C126.251 37.4187 127.282 37.0944 128.303 36.8012C129.288 36.5146 130.274 36.2283 131.251 35.9738C132.377 35.6611 133.495 35.3804 134.619 35.1352C135.716 34.865 136.804 34.6265 137.903 34.4087C139.167 34.1374 140.438 33.9025 141.718 33.6872C142.984 33.4674 144.241 33.2796 145.507 33.112C147.001 32.9095 148.505 32.7275 150.011 32.5969C151.541 32.4399 153.072 32.3337 154.61 32.2649C156.48 32.1406 158.362 32.0892 160.244 32.0891C162.299 32.0722 164.365 32.1275 166.433 32.2341C175.362 32.6878 184.385 34.2134 193.313 36.8923C202.241 39.5712 210.613 43.2645 218.317 47.8027C220.101 48.8518 221.857 49.9435 223.563 51.0888C225.135 52.1254 226.678 53.2044 228.17 54.3377C229.415 55.2424 230.636 56.1735 231.841 57.1513C233.011 58.0845 234.166 59.0646 235.302 60.0563C236.267 60.8934 237.228 61.7474 238.148 62.6223C239.099 63.5071 240.03 64.4027 240.936 65.3254C241.733 66.1128 242.51 66.9109 243.278 67.74C244.081 68.5631 244.874 69.4173 245.628 70.2942C246.318 71.0487 246.983 71.8307 247.633 72.608C248.34 73.4187 249.006 74.2529 249.688 75.0909C250.266 75.8292 250.844 76.5684 251.418 77.3221C252.013 78.1176 252.607 78.912 253.182 79.7179C253.699 80.4379 254.201 81.1535 254.698 81.8847C255.232 82.661 255.75 83.4334 256.263 84.221C256.719 84.9226 257.16 85.6198 257.596 86.3327C258.057 87.0709 258.515 87.8241 258.951 88.5886C259.361 89.2765 259.756 89.9606 260.147 90.6592C260.572 91.404 260.984 92.1435 261.375 92.8943C261.739 93.5686 262.099 94.2587 262.432 94.9236C262.813 95.6538 263.178 96.3804 263.524 97.1175C263.842 97.778 264.161 98.4385 264.474 99.1147C264.798 99.8115 265.118 100.524 265.417 101.247C265.72 101.903 265.992 102.549 266.26 103.212C266.564 103.92 266.854 104.623 267.122 105.337C267.395 105.984 267.632 106.637 267.874 107.275C268.148 107.973 268.386 108.678 268.645 109.372C268.871 110.005 269.083 110.634 269.289 111.278C269.533 111.967 269.745 112.647 269.952 113.343C270.164 113.971 270.359 114.595 270.536 115.23C270.748 115.911 270.93 116.582 271.128 117.257C271.294 117.872 271.459 118.486 271.62 119.116C271.802 119.787 271.968 120.454 272.13 121.136C272.281 121.746 272.426 122.372 272.561 122.977C272.712 123.639 272.859 124.316 272.98 124.969C273.115 125.575 273.25 126.18 273.349 126.792C273.485 127.45 273.606 128.102 273.707 128.766C273.826 129.367 273.931 129.963 274.015 130.571C274.12 131.218 274.211 131.862 274.3 132.505C274.39 133.097 274.474 133.705 274.547 134.291C274.638 134.935 274.708 135.589 274.767 136.224C274.841 136.811 274.895 137.409 274.954 137.992C275.013 138.627 275.073 139.261 275.128 139.911C275.171 140.488 275.214 141.066 275.238 141.656C275.297 142.289 275.327 142.915 275.351 143.556C275.393 144.134 275.417 144.723 275.415 145.287C275.459 145.916 275.473 146.538 275.471 147.153C275.499 147.726 275.492 148.306 275.504 148.875C275.503 149.491 275.496 150.123 275.495 150.739C275.492 151.303 275.485 151.883 275.467 152.442C275.45 153.053 275.433 153.665 275.396 154.288C275.377 154.847 275.36 155.407 275.322 155.977C275.289 156.585 275.258 157.191 275.221 157.814C275.173 158.364 275.139 158.919 275.086 159.485C275.038 160.087 274.976 160.685 274.913 161.282C274.865 161.833 274.811 162.399 274.733 162.94C274.685 163.542 274.602 164.15 274.525 164.744C274.456 165.306 274.393 165.852 274.314 166.393C274.231 167.001 274.138 167.59 274.029 168.174C273.965 168.72 273.866 169.272 273.772 169.809C273.679 170.397 273.57 170.981 273.446 171.56C273.368 172.101 273.273 172.638 273.143 173.181C273.035 173.765 272.926 174.349 272.782 174.939C272.688 175.476 272.559 176.019 272.433 176.547C272.309 177.126 272.165 177.716 272.026 178.291C271.897 178.834 271.772 179.362 271.632 179.885C271.478 180.454 271.334 181.045 271.179 181.615C271.024 182.133 270.879 182.672 270.723 183.191C270.591 183.687 270.45 184.159 270.304 184.646Z" fill="#5202BC"/>
<path d="M264.189 182.812C245.236 245.973 180.04 282.211 118.571 263.767C87.7528 254.519 63.7189 233.267 49.7958 206.42C39.7958 187.102 35.0305 164.886 36.7381 142.146C37.3907 133.473 38.9838 124.722 41.5951 116.02C60.5427 52.8742 125.744 16.6201 187.197 35.06C215.203 43.4636 237.618 61.7813 251.916 85.2142C263.277 103.828 269.521 125.667 269.386 148.33C269.316 159.728 267.639 171.313 264.189 182.812Z" fill="#5202BC"/>
<path d="M248.133 178.006C245.847 185.624 242.787 192.77 239.062 199.409C216.26 239.859 168.719 260.848 123.517 247.284C115.597 244.908 108.205 241.612 101.418 237.52C69.4326 218.334 50.7667 181.914 53.4322 143.709C53.9777 136.116 55.3571 128.465 57.643 120.847C59.929 113.229 62.9943 106.067 66.7345 99.4333C89.5259 58.9633 137.061 37.9897 182.25 51.5491C211.707 60.3882 233.927 82.0203 244.909 108.842C250.805 123.178 253.474 138.996 252.334 155.126C251.803 162.721 250.419 170.388 248.133 178.006Z" fill="#2E006B"/>
<path d="M248.02 177.895C245.735 185.509 242.694 192.656 239.006 199.302C216.426 239.791 169.725 261.013 125.518 247.748C117.774 245.424 110.551 242.179 103.925 238.137C75.1616 218.914 58.6935 184.401 61.3971 148.13C61.9823 140.639 63.366 133.097 65.6225 125.577C67.8742 118.073 70.8762 110.999 74.5271 104.428C96.8113 64.4314 142.922 43.495 186.561 56.5897C213.651 64.7183 234.321 84.3028 245.27 108.91C250.962 123.178 253.483 138.943 252.271 155.042C251.706 162.624 250.304 170.281 248.02 177.895Z" fill="#3E0190"/>
<path d="M162.007 213.166C157.777 212.015 153.87 209.9 150.593 206.986C147.793 204.493 145.782 201.236 144.805 197.613C143.892 193.904 144.028 190.012 145.198 186.374C145.397 185.708 145.597 185.043 145.862 184.362C146.127 183.68 146.373 182.981 146.67 182.272C141.758 180.544 137.218 177.899 133.292 174.476C129.578 171.233 126.549 167.28 124.38 162.849C122.187 158.335 120.9 153.433 120.592 148.421C120.256 143.102 120.888 137.765 122.459 132.67C123.971 127.497 126.473 122.667 129.826 118.449C133.088 114.341 137.153 110.943 141.773 108.465C146.513 105.929 151.707 104.359 157.055 103.844C162.922 103.312 168.836 103.949 174.454 105.718C180.1 107.33 185.39 109.995 190.046 113.574C194.252 116.821 197.764 120.882 200.37 125.516C202.901 130.06 204.458 135.083 204.944 140.264C205.439 145.788 204.842 151.357 203.186 156.652L190.95 197.432C189.827 201.273 187.85 204.811 185.167 207.779C182.531 210.696 179.105 212.783 175.307 213.786C170.903 214.833 166.294 214.618 162.007 213.166ZM154.967 165.877C155.476 166.03 155.963 166.176 156.439 166.319C156.952 166.432 157.476 166.492 158.001 166.498C160.106 164.849 162.313 163.336 164.608 161.967C167.096 160.469 169.685 159.147 172.357 158.01C175.074 156.849 177.874 155.892 180.732 155.146L182.468 149.36C183.325 146.599 183.67 143.705 183.486 140.821C183.309 138.154 182.612 135.547 181.434 133.149C180.249 130.792 178.606 128.697 176.6 126.987C174.485 125.176 172.007 123.839 169.333 123.066C166.702 122.256 163.923 122.042 161.198 122.438C158.558 122.822 156.026 123.749 153.759 125.159C151.383 126.658 149.307 128.588 147.637 130.849C145.81 133.31 144.437 136.077 143.581 139.02C142.704 141.84 142.301 144.786 142.389 147.737C142.458 150.404 143.027 153.034 144.067 155.49C145.063 157.807 146.528 159.892 148.369 161.614C150.297 163.417 152.531 164.861 154.967 165.877ZM166.332 195.579C166.91 195.768 167.526 195.815 168.127 195.716C168.728 195.616 169.296 195.373 169.784 195.007C170.944 194.079 171.757 192.786 172.091 191.338L177.08 174.711C175.298 175.427 173.613 176.367 172.067 177.509C170.708 178.525 169.449 179.668 168.305 180.923C167.242 182.086 166.331 183.38 165.593 184.773C164.885 186.096 164.307 187.484 163.867 188.919C163.534 189.931 163.439 191.006 163.588 192.061C163.709 192.889 164.022 193.678 164.501 194.365C164.959 194.962 165.603 195.389 166.332 195.579Z" fill="#2E006B"/>
<path d="M155.412 207.566C151.181 206.415 147.275 204.3 143.997 201.386C141.198 198.893 139.186 195.636 138.209 192.013C137.296 188.304 137.432 184.412 138.602 180.774C138.802 180.109 139.002 179.444 139.266 178.762C139.531 178.08 139.777 177.381 140.074 176.673C135.162 174.945 130.622 172.299 126.696 168.876C122.983 165.633 119.953 161.68 117.785 157.249C115.591 152.736 114.304 147.834 113.996 142.822C113.66 137.502 114.293 132.165 115.863 127.071C117.375 121.897 119.877 117.067 123.231 112.849C126.492 108.741 130.557 105.343 135.177 102.865C139.917 100.33 145.112 98.7592 150.46 98.2444C156.327 97.7125 162.24 98.3494 167.858 100.118C173.504 101.73 178.794 104.395 183.45 107.974C187.657 111.221 191.168 115.282 193.775 119.917C196.305 124.461 197.863 129.483 198.348 134.664C198.844 140.189 198.246 145.758 196.591 151.053L184.354 191.832C183.232 195.674 181.255 199.211 178.572 202.179C175.935 205.096 172.51 207.183 168.712 208.186C164.307 209.233 159.698 209.019 155.412 207.566ZM148.371 160.277C148.88 160.43 149.367 160.576 149.843 160.719C150.357 160.832 150.88 160.892 151.406 160.898C153.51 159.25 155.717 157.737 158.012 156.368C160.5 154.869 163.09 153.547 165.762 152.41C168.479 151.25 171.278 150.292 174.136 149.546L175.872 143.76C176.729 141 177.074 138.106 176.891 135.222C176.714 132.554 176.016 129.948 174.838 127.55C173.654 125.193 172.01 123.097 170.005 121.387C167.889 119.576 165.412 118.239 162.737 117.466C160.106 116.657 157.328 116.442 154.603 116.838C151.963 117.223 149.43 118.149 147.164 119.56C144.788 121.059 142.711 122.989 141.041 125.25C139.215 127.711 137.841 130.478 136.985 133.421C136.108 136.24 135.705 139.186 135.793 142.137C135.863 144.804 136.432 147.434 137.472 149.89C138.467 152.208 139.932 154.293 141.774 156.014C143.701 157.818 145.936 159.262 148.371 160.277ZM159.736 189.979C160.315 190.168 160.931 190.215 161.532 190.116C162.133 190.017 162.701 189.774 163.188 189.408C164.348 188.48 165.161 187.187 165.496 185.738L170.485 169.112C168.702 169.828 167.018 170.768 165.472 171.909C164.113 172.925 162.853 174.069 161.709 175.323C160.646 176.486 159.735 177.78 158.998 179.173C158.29 180.496 157.711 181.884 157.271 183.319C156.939 184.331 156.843 185.406 156.992 186.461C157.113 187.29 157.426 188.079 157.905 188.765C158.363 189.362 159.008 189.789 159.736 189.979Z" fill="url(#paint0_linear_4038_330)"/>
<g filter="url(#filter0_f_4038_330)">
<path d="M77.1036 171.549L77.129 171.621C77.1816 171.77 77.2359 171.923 77.284 172.073C77.3415 172.235 77.396 172.402 77.449 172.566C77.4972 172.716 77.5427 172.872 77.5909 173.022C77.6396 173.187 77.6898 173.357 77.7386 173.522C77.7825 173.673 77.8279 173.829 77.8719 173.981C77.9178 174.152 77.9621 174.318 78.0018 174.487C78.0473 174.643 78.0869 174.796 78.1219 174.95C78.1662 175.117 78.2062 175.285 78.2416 175.455C78.2827 175.612 78.3178 175.767 78.3485 175.923C78.3883 176.091 78.4254 176.266 78.4566 176.437C78.4917 176.591 78.5181 176.749 78.5504 176.91C78.5814 177.081 78.6127 177.252 78.641 177.43C78.6717 177.586 78.6997 177.748 78.7217 177.907C78.7529 178.078 78.7754 178.253 78.8021 178.426C78.8241 178.585 78.8477 178.749 78.8653 178.909C78.8937 179.087 78.9116 179.263 78.934 179.437C78.9532 179.602 78.9707 179.763 78.9841 179.926C79.0036 180.106 79.0172 180.283 79.031 180.461C79.0502 180.626 79.0635 180.789 79.0722 180.953C79.0859 181.13 79.0967 181.313 79.1061 181.493C79.115 181.656 79.1253 181.825 79.1297 181.99C79.139 182.169 79.1438 182.35 79.1486 182.531C79.1531 182.696 79.1548 182.868 79.1548 183.035C79.1596 183.215 79.1618 183.402 79.1578 183.586C79.1595 183.757 79.1553 183.926 79.1509 184.094C79.1531 184.281 79.1448 184.466 79.1363 184.651C79.1322 184.82 79.1249 184.995 79.1208 185.163C79.108 185.35 79.0969 185.541 79.0845 185.728C79.0715 185.9 79.06 186.076 79.047 186.248C79.0299 186.436 79.0129 186.624 78.996 186.813C78.9801 186.99 78.9629 187.164 78.9409 187.338C78.9212 187.533 78.8953 187.724 78.8696 187.916C78.8493 188.095 78.8276 188.27 78.797 188.448C78.7728 188.644 78.7426 188.837 78.7082 189.031C78.682 189.207 78.6531 189.39 78.618 189.569C78.5837 189.764 78.5461 189.964 78.5117 190.159C78.4725 190.34 78.4346 190.526 78.3954 190.707C78.352 190.904 78.3088 191.102 78.2612 191.301C78.2236 191.487 78.1797 191.669 78.1318 191.853C78.0815 192.058 78.0293 192.259 77.9729 192.461C77.9264 192.65 77.8741 192.836 77.8171 193.023C77.7623 193.23 77.7015 193.434 77.6364 193.639C77.5797 193.826 77.5243 194.018 77.4631 194.207C77.3936 194.414 77.3257 194.625 77.2518 194.834C77.1833 195.03 77.1135 195.222 77.0434 195.414C76.9711 195.627 76.8869 195.834 76.8041 196.045C76.7314 196.243 76.6527 196.438 76.574 196.633C76.4841 196.853 76.3926 197.067 76.3012 197.282C76.2155 197.485 76.1279 197.683 76.0316 197.884C75.9373 198.105 75.8328 198.324 75.7238 198.545C75.6248 198.752 75.5259 198.96 75.4192 199.159C75.3076 199.386 75.1897 199.61 75.0705 199.83C74.9628 200.04 74.8445 200.249 74.731 200.456C74.6016 200.69 74.4665 200.92 74.3314 201.15C74.2061 201.367 74.0748 201.58 73.9393 201.795C73.7926 202.035 73.6397 202.271 73.4826 202.509C73.3354 202.734 73.1882 202.958 73.0335 203.175C72.8621 203.428 72.6874 203.672 72.507 203.913C72.3397 204.15 72.1644 204.379 71.988 204.604C71.7888 204.862 71.5877 205.115 71.3811 205.366C71.1829 205.613 70.9818 205.852 70.7701 206.089C70.5374 206.363 70.2971 206.631 70.0552 206.894C69.8117 207.152 69.5682 207.411 69.3173 207.662C69.0276 207.957 68.7305 208.245 68.4318 208.528C68.1287 208.813 67.8239 209.092 67.5099 209.361C67.1345 209.692 66.7497 210.01 66.3573 210.321C65.9506 210.648 65.5305 210.964 65.1072 211.271C62.6259 213.057 59.8548 214.525 56.8385 215.595C53.8222 216.664 50.745 217.269 47.6929 217.445C47.1706 217.473 46.6453 217.492 46.1238 217.495C45.623 217.5 45.1234 217.495 44.6235 217.475C44.2091 217.46 43.7975 217.438 43.3828 217.408C42.9724 217.376 42.5603 217.34 42.1496 217.293C41.7964 217.257 41.4447 217.209 41.0928 217.162C40.7392 217.11 40.3841 217.054 40.0304 216.986C39.7211 216.934 39.41 216.877 39.1005 216.81C38.782 216.745 38.4664 216.675 38.1491 216.6C37.8704 216.537 37.5887 216.465 37.311 216.391C37.0187 216.317 36.7279 216.233 36.4413 216.148C36.1844 216.077 35.9245 215.997 35.6688 215.915C35.4014 215.828 35.1338 215.74 34.8647 215.648C34.6282 215.565 34.3917 215.482 34.1538 215.394C33.9038 215.3 33.658 215.205 33.4109 215.105C33.1891 215.022 32.9687 214.928 32.7481 214.834C32.5169 214.739 32.2845 214.639 32.0549 214.533C31.8448 214.44 31.6389 214.346 31.4314 214.248C31.2121 214.143 30.9926 214.039 30.7759 213.928C30.5789 213.831 30.3818 213.734 30.1874 213.631C29.9811 213.521 29.7748 213.412 29.567 213.299C29.383 213.197 29.1991 213.095 29.0179 212.987C28.8206 212.875 28.629 212.765 28.4342 212.647C28.2591 212.542 28.0838 212.437 27.9071 212.328C27.7229 212.211 27.5325 212.091 27.3524 211.972C27.186 211.864 27.0179 211.752 26.856 211.642C26.6803 211.522 26.5075 211.396 26.332 211.276L26.3304 211.271C20.5598 207.226 15.9185 201.362 13.3605 194.147C10.801 186.927 10.7108 179.445 12.6431 172.663C12.682 172.523 12.7224 172.387 12.7613 172.247C12.8266 172.042 12.8901 171.832 12.9553 171.626C13.0165 171.437 13.0805 171.243 13.1462 171.052C13.2141 170.841 13.288 170.632 13.3663 170.422C13.4348 170.226 13.5091 170.032 13.5834 169.839C13.6602 169.624 13.7428 169.413 13.8269 169.206C13.9084 169.005 13.9914 168.808 14.0745 168.612C14.1644 168.393 14.2603 168.176 14.3604 167.958C14.4522 167.759 14.5468 167.553 14.6386 167.353C14.7416 167.13 14.8506 166.909 14.964 166.686C15.0672 166.477 15.1724 166.273 15.2817 166.067C15.3977 165.839 15.5214 165.618 15.6435 165.392C15.7617 165.183 15.8781 164.97 16.0007 164.759C16.1387 164.523 16.2828 164.29 16.4223 164.058C16.5562 163.838 16.6964 163.621 16.8319 163.406C16.9919 163.162 17.149 162.924 17.3148 162.683C17.4662 162.457 17.6237 162.234 17.7856 162.01C17.9673 161.758 18.1534 161.505 18.3427 161.26C18.5248 161.024 18.707 160.787 18.8925 160.559C19.1032 160.292 19.3174 160.034 19.5389 159.783C19.7502 159.531 19.9645 159.288 20.185 159.048C20.4352 158.767 20.6931 158.493 20.9567 158.222C21.2161 157.953 21.4788 157.693 21.7472 157.436C22.0631 157.131 22.385 156.83 22.7159 156.54C23.0481 156.24 23.3894 155.952 23.7385 155.672C24.1563 155.321 24.5892 154.985 25.0311 154.661C25.5105 154.304 26.0052 153.962 26.5089 153.631C28.6831 152.202 31.0637 151.009 33.6203 150.102C36.1769 149.196 38.7776 148.623 41.3666 148.364C41.9659 148.303 42.5658 148.258 43.1633 148.233C43.7106 148.206 44.2583 148.194 44.8035 148.203C45.2514 148.202 45.698 148.21 46.1492 148.233C46.5843 148.251 47.024 148.282 47.4613 148.319C47.8318 148.35 48.2042 148.385 48.5708 148.432C48.9461 148.477 49.3187 148.527 49.6901 148.588C50.0125 148.635 50.3322 148.689 50.6551 148.752C50.9851 148.807 51.3182 148.871 51.646 148.947C51.9376 149.006 52.2284 149.075 52.5147 149.146C52.82 149.214 53.1198 149.296 53.4239 149.375C53.6866 149.449 53.9494 149.523 54.2139 149.601C54.4903 149.686 54.7664 149.77 55.04 149.861C55.2851 149.941 55.5261 150.022 55.7684 150.109C56.0273 150.199 56.2817 150.291 56.5377 150.388C56.7654 150.474 56.9888 150.562 57.2136 150.654C57.449 150.748 57.6858 150.847 57.9199 150.951C58.1344 151.042 58.3446 151.135 58.5565 151.232C58.7846 151.333 59.0083 151.436 59.2293 151.545C59.4307 151.641 59.6338 151.741 59.8264 151.84C60.0413 151.946 60.2521 152.053 60.4599 152.167C60.6483 152.267 60.8367 152.367 61.0265 152.472C61.2223 152.58 61.4199 152.692 61.6144 152.811C61.7984 152.913 61.9735 153.018 62.1504 153.127C62.3436 153.241 62.5323 153.356 62.7182 153.478C62.8935 153.583 63.0616 153.695 63.228 153.803C63.4122 153.92 63.5895 154.045 63.7696 154.163C63.9316 154.273 64.0895 154.384 64.2485 154.5C64.4242 154.62 64.591 154.743 64.7594 154.871C64.9171 154.982 65.0702 155.094 65.221 155.213C65.3878 155.337 65.5459 155.463 65.7085 155.587C65.8531 155.703 65.9976 155.819 66.1437 155.939C66.3018 156.065 66.4555 156.193 66.6108 156.326C66.751 156.443 66.8927 156.565 67.0285 156.684C67.1777 156.813 67.3288 156.947 67.4694 157.079C67.6052 157.198 67.741 157.317 67.8696 157.444C68.0147 157.575 68.1552 157.707 68.293 157.846C68.4244 157.966 68.5515 158.088 68.6756 158.216C68.8118 158.35 68.9438 158.486 69.0755 158.621C69.1982 158.745 69.3225 158.873 69.4406 158.998C69.5725 159.134 69.7014 159.275 69.8245 159.414C69.9428 159.539 70.0582 159.671 70.1723 159.797C70.2954 159.936 70.4185 160.075 70.5431 160.218C70.6525 160.346 70.7622 160.474 70.869 160.608C70.992 160.747 71.1065 160.889 71.2223 161.035C71.3317 161.163 71.4385 161.298 71.535 161.431C71.6536 161.571 71.7637 161.714 71.8692 161.859C71.9744 161.989 72.0723 162.126 72.1731 162.257C72.2786 162.402 72.3858 162.552 72.4913 162.697C72.5876 162.829 72.6858 162.967 72.7777 163.101C72.8788 163.248 72.9802 163.394 73.0784 163.547C73.1703 163.681 73.2625 163.816 73.3517 163.956C73.4484 164.104 73.5453 164.252 73.6438 164.405C73.727 164.542 73.8146 164.678 73.8995 164.82C73.9917 164.97 74.08 165.121 74.168 165.272C74.2512 165.409 74.3361 165.551 74.4106 165.692C74.5031 165.841 74.5882 165.999 74.6721 166.151C74.7525 166.295 74.8315 166.434 74.9061 166.575C74.9913 166.732 75.0707 166.886 75.1456 167.042C75.2244 167.181 75.2962 167.328 75.3663 167.47C75.4456 167.624 75.5206 167.78 75.5911 167.937C75.6657 168.078 75.7358 168.22 75.7987 168.37C75.8736 168.525 75.9486 168.681 76.0162 168.844C76.0864 168.987 76.1495 169.136 76.2107 169.282C76.2812 169.439 76.3488 169.602 76.4152 169.761C76.4783 169.911 76.5395 170.056 76.5966 170.203C76.6584 170.364 76.7261 170.527 76.788 170.687C76.8406 170.836 76.8992 170.987 76.9518 171.136C77.0063 171.275 77.0541 171.41 77.1036 171.549Z" fill="#5202BC"/>
<path d="M75.3525 172.171C81.7648 190.258 72.6908 209.977 55.0884 216.217C46.2632 219.346 36.9663 218.49 29.0809 214.582C23.4112 211.766 18.4721 207.37 14.9625 201.738C13.6242 199.59 12.4933 197.261 11.6098 194.769C5.19909 176.687 14.2714 156.963 31.8694 150.724C39.8893 147.881 48.3015 148.327 55.6876 151.369C61.5559 153.785 66.7772 157.838 70.6428 163.182C72.5865 165.87 74.1851 168.878 75.3525 172.171Z" fill="#5202BC"/>
<path d="M70.7569 173.804C71.5303 175.985 72.0407 178.189 72.3079 180.388C73.9108 193.805 66.3596 206.908 53.4151 211.497C51.1474 212.301 48.8451 212.799 46.5481 213.005C35.7398 214.002 25.0946 208.661 19.1503 199.234C17.9727 197.358 16.9809 195.324 16.2075 193.143C15.434 190.961 14.922 188.753 14.6593 186.552C13.0504 173.132 20.6032 160.034 33.5435 155.446C41.9791 152.455 50.9155 153.713 58.1061 158.121C61.9556 160.473 65.3023 163.727 67.8084 167.71C68.9901 169.584 69.9835 171.622 70.7569 173.804Z" fill="#2E006B"/>
<path d="M70.7112 173.797C71.4842 175.977 71.9995 178.178 72.2763 180.372C73.9384 193.761 66.6241 206.774 53.9648 211.262C51.747 212.048 49.4933 212.528 47.2429 212.719C37.1845 213.152 27.3834 207.882 21.7807 198.902C20.6299 197.043 19.6577 195.034 18.8942 192.881C18.1324 190.732 17.6208 188.555 17.3478 186.384C15.7012 173.163 22.9258 160.318 35.4226 155.888C43.1801 153.138 51.4005 154.181 58.2026 158.075C61.9925 160.445 65.2954 163.713 67.7792 167.701C68.9506 169.578 69.9383 171.617 70.7112 173.797Z" fill="#3E0190"/>
<path d="M56.584 196.868C55.393 197.325 54.1121 197.501 52.8416 197.38C51.7557 197.276 50.7233 196.858 49.871 196.175C49.0187 195.461 48.3814 194.524 48.0304 193.469C47.9629 193.278 47.8954 193.088 47.8404 192.882C47.7853 192.677 47.7228 192.47 47.6707 192.253C46.2204 192.692 44.6997 192.852 43.1894 192.723C41.7599 192.6 40.3689 192.193 39.0978 191.526C37.8066 190.844 36.6615 189.914 35.7273 188.791C34.7337 187.6 33.9644 186.238 33.4571 184.772C32.9223 183.297 32.6791 181.733 32.741 180.166C32.8002 178.641 33.1703 177.144 33.8286 175.768C34.5055 174.358 35.4548 173.096 36.6218 172.055C37.9077 170.921 39.4055 170.054 41.0286 169.503C42.6312 168.91 44.3314 168.626 46.0399 168.666C47.5859 168.705 49.1085 169.054 50.5174 169.694C51.8929 170.326 53.1222 171.237 54.1272 172.37C55.1935 173.582 56.011 174.992 56.5329 176.519L60.673 188.197C61.07 189.292 61.2142 190.463 61.0948 191.621C60.9775 192.759 60.5321 193.838 59.8129 194.726C58.959 195.73 57.84 196.472 56.584 196.868ZM46.7991 186.977C46.9449 186.925 47.0843 186.876 47.2206 186.828C47.3606 186.766 47.4938 186.69 47.6182 186.601C47.8288 185.852 48.0867 185.117 48.3902 184.401C48.7166 183.622 49.0971 182.866 49.5289 182.14C49.9671 181.4 50.4596 180.694 51.0024 180.027L50.4149 178.37C50.1413 177.575 49.7247 176.836 49.1856 176.191C48.6853 175.595 48.0734 175.103 47.3844 174.742C46.7011 174.393 45.955 174.184 45.1899 174.127C44.382 174.066 43.5704 174.178 42.8096 174.456C42.0527 174.719 41.3636 175.146 40.7919 175.708C40.2383 176.252 39.8031 176.905 39.5135 177.626C39.2135 178.386 39.0579 179.196 39.0548 180.015C39.0491 180.906 39.2025 181.792 39.5077 182.63C39.7866 183.443 40.1985 184.204 40.7267 184.882C41.2017 185.496 41.7876 186.015 42.454 186.413C43.0863 186.786 43.7888 187.023 44.5171 187.111C45.2798 187.203 46.0526 187.158 46.7991 186.977ZM54.5748 191.996C54.7433 191.941 54.8959 191.846 55.0199 191.719C55.1439 191.592 55.2355 191.438 55.2871 191.268C55.3997 190.851 55.3682 190.407 55.1977 190.01L53.5098 185.248C53.2144 185.723 52.9806 186.233 52.8139 186.767C52.6697 187.239 52.5705 187.724 52.5177 188.216C52.4682 188.672 52.4768 189.132 52.5433 189.586C52.6045 190.018 52.7075 190.444 52.8509 190.856C52.9469 191.151 53.1093 191.42 53.3256 191.642C53.4967 191.815 53.7057 191.947 53.9362 192.026C54.1465 192.087 54.3712 192.076 54.5748 191.996Z" fill="#2E006B"/>
<path d="M54.0727 196.688C52.8817 197.145 51.6009 197.321 50.3303 197.2C49.2444 197.096 48.212 196.677 47.3597 195.995C46.5074 195.281 45.8701 194.344 45.5192 193.289C45.4516 193.098 45.3841 192.908 45.3291 192.702C45.274 192.497 45.2115 192.29 45.1594 192.073C43.7091 192.512 42.1884 192.672 40.6781 192.543C39.2486 192.42 37.8576 192.013 36.5865 191.346C35.2954 190.664 34.1502 189.734 33.216 188.61C32.2224 187.419 31.4531 186.058 30.9458 184.592C30.411 183.117 30.1678 181.553 30.2297 179.986C30.2889 178.461 30.659 176.964 31.3174 175.588C31.9942 174.177 32.9435 172.915 34.1105 171.875C35.3964 170.741 36.8942 169.874 38.5173 169.323C40.1199 168.73 41.8201 168.446 43.5286 168.486C45.0746 168.525 46.5972 168.874 48.0061 169.514C49.3816 170.146 50.6109 171.057 51.6159 172.19C52.6822 173.401 53.4997 174.811 54.0216 176.339L58.1617 188.017C58.5587 189.112 58.703 190.282 58.5835 191.441C58.4662 192.579 58.0208 193.658 57.3016 194.546C56.4477 195.55 55.3288 196.292 54.0727 196.688ZM44.2878 186.797C44.4336 186.745 44.573 186.696 44.7093 186.648C44.8493 186.586 44.9825 186.51 45.1069 186.421C45.3176 185.672 45.5754 184.937 45.8789 184.221C46.2053 183.442 46.5858 182.686 47.0176 181.96C47.4558 181.22 47.9483 180.514 48.4911 179.847L47.9037 178.19C47.63 177.395 47.2134 176.656 46.6743 176.01C46.1741 175.415 45.5621 174.923 44.8731 174.562C44.1898 174.213 43.4437 174.003 42.6787 173.947C41.8707 173.885 41.0591 173.998 40.2984 174.276C39.5414 174.538 38.8523 174.966 38.2806 175.527C37.727 176.072 37.2918 176.725 37.0022 177.446C36.7022 178.206 36.5467 179.016 36.5435 179.834C36.5378 180.726 36.6912 181.612 36.9964 182.45C37.2753 183.263 37.6873 184.024 38.2154 184.701C38.6904 185.316 39.2763 185.835 39.9427 186.233C40.575 186.606 41.2775 186.843 42.0058 186.931C42.7685 187.023 43.5413 186.977 44.2878 186.797ZM52.0635 191.815C52.232 191.76 52.3846 191.666 52.5086 191.539C52.6326 191.412 52.7243 191.257 52.7758 191.088C52.8884 190.67 52.8569 190.227 52.6864 189.829L50.9985 185.068C50.7031 185.543 50.4693 186.053 50.3026 186.587C50.1584 187.059 50.0592 187.544 50.0064 188.035C49.9569 188.491 49.9655 188.952 50.032 189.406C50.0932 189.838 50.1962 190.263 50.3396 190.676C50.4356 190.971 50.598 191.239 50.8144 191.461C50.9854 191.635 51.1944 191.767 51.4249 191.845C51.6352 191.907 51.8599 191.896 52.0635 191.815Z" fill="white"/>
</g>
<g filter="url(#filter1_f_4038_330)">
<path d="M147.805 25.2379L147.826 25.2932C147.868 25.4076 147.912 25.5254 147.951 25.6411C147.998 25.766 148.042 25.8953 148.085 26.0215C148.124 26.1372 148.161 26.2575 148.2 26.3732C148.239 26.5004 148.28 26.6313 148.32 26.7586C148.356 26.8754 148.393 26.9958 148.428 27.1127C148.466 27.2447 148.502 27.3731 148.535 27.5031C148.572 27.6235 148.604 27.7416 148.633 27.861C148.67 27.9895 148.702 28.1194 148.732 28.2504C148.766 28.3721 148.795 28.4914 148.82 28.6121C148.853 28.7418 148.884 28.8766 148.91 29.0088C148.939 29.1282 148.961 29.25 148.988 29.3742C149.014 29.5065 149.04 29.6389 149.064 29.7759C149.09 29.8966 149.113 30.0219 149.132 30.1451C149.158 30.2773 149.178 30.4122 149.2 30.5457C149.219 30.6689 149.239 30.7955 149.255 30.9199C149.279 31.0569 149.295 31.193 149.314 31.3279C149.331 31.4558 149.346 31.5802 149.358 31.7058C149.376 31.8454 149.388 31.9826 149.401 32.12C149.418 32.2479 149.43 32.3735 149.439 32.5005C149.451 32.6377 149.462 32.7798 149.471 32.9184C149.48 33.0453 149.49 33.1758 149.495 33.3039C149.504 33.4424 149.51 33.5824 149.516 33.7222C149.521 33.8503 149.524 33.9833 149.526 34.1127C149.532 34.2524 149.536 34.3969 149.535 34.5395C149.538 34.6724 149.537 34.803 149.536 34.9337C149.539 35.0782 149.535 35.2217 149.531 35.3655C149.529 35.4961 149.526 35.6316 149.524 35.7622C149.517 35.907 149.51 36.0553 149.503 36.2002C149.495 36.3334 149.488 36.4701 149.48 36.6032C149.469 36.7495 149.458 36.8955 149.447 37.0415C149.436 37.1794 149.425 37.3138 149.41 37.4495C149.397 37.6003 149.379 37.7488 149.361 37.8975C149.348 38.0367 149.333 38.1724 149.311 38.3105C149.295 38.4626 149.274 38.6126 149.249 38.7636C149.231 38.9005 149.211 39.0422 149.186 39.1817C149.161 39.3329 149.134 39.4885 149.11 39.6397C149.082 39.7804 149.054 39.9246 149.026 40.0653C148.995 40.2188 148.964 40.3726 148.929 40.5273C148.902 40.6715 148.87 40.8135 148.835 40.9566C148.798 41.1161 148.76 41.2724 148.719 41.4297C148.685 41.5764 148.647 41.7208 148.605 41.8665C148.565 42.0274 148.52 42.1861 148.472 42.3459C148.43 42.4916 148.389 42.6408 148.344 42.7877C148.293 42.9488 148.242 43.1133 148.187 43.2758C148.137 43.4288 148.085 43.5782 148.033 43.7277C147.979 43.8936 147.916 44.055 147.855 44.2199C147.801 44.3741 147.742 44.526 147.683 44.678C147.616 44.8488 147.547 45.0161 147.479 45.1837C147.415 45.3416 147.349 45.4961 147.277 45.6531C147.207 45.8252 147.128 45.9963 147.046 46.1688C146.972 46.3305 146.898 46.4922 146.817 46.6482C146.733 46.8253 146.645 47.0002 146.555 47.1717C146.474 47.3359 146.385 47.4991 146.299 47.661C146.201 47.8432 146.099 48.023 145.997 48.203C145.903 48.3723 145.804 48.5393 145.701 48.7075C145.59 48.8946 145.474 49.0795 145.355 49.2658C145.244 49.4413 145.132 49.6169 145.015 49.7866C144.885 49.9847 144.753 50.1759 144.616 50.3649C144.489 50.5501 144.356 50.7297 144.221 50.9056C144.07 51.1078 143.917 51.3065 143.76 51.503C143.609 51.6969 143.456 51.884 143.295 52.0701C143.118 52.2857 142.935 52.4957 142.75 52.7023C142.565 52.9054 142.379 53.1084 142.187 53.3057C141.966 53.5377 141.739 53.7639 141.511 53.9867C141.28 54.2108 141.047 54.4312 140.807 54.6427C140.52 54.9033 140.225 55.1545 139.925 55.4002C139.613 55.6577 139.291 55.9074 138.967 56.1502C137.065 57.5624 134.935 58.7319 132.61 59.595C130.286 60.4581 127.909 60.9621 125.546 61.1333C125.142 61.1611 124.735 61.182 124.331 61.1901C123.943 61.2 123.556 61.2018 123.168 61.1917C122.847 61.1849 122.528 61.173 122.206 61.1545C121.888 61.1346 121.568 61.1113 121.25 61.0797C120.975 61.0553 120.702 61.0226 120.429 60.9899C120.155 60.9537 119.879 60.9142 119.604 60.8662C119.364 60.8291 119.122 60.7887 118.882 60.7401C118.634 60.6939 118.389 60.643 118.142 60.5887C117.926 60.5427 117.706 60.4902 117.49 60.4362C117.263 60.3825 117.037 60.3206 116.814 60.2575C116.614 60.2055 116.412 60.1465 116.213 60.0862C116.004 60.0216 115.796 59.9568 115.587 59.8887C115.402 59.827 115.218 59.7652 115.033 59.6999C114.838 59.6303 114.647 59.5592 114.454 59.4848C114.281 59.4229 114.109 59.3525 113.937 59.2822C113.757 59.211 113.576 59.1363 113.397 59.0569C113.233 58.9876 113.072 58.9171 112.911 58.8431C112.739 58.7647 112.568 58.6861 112.399 58.603C112.245 58.53 112.091 58.4569 111.94 58.3792C111.779 58.2968 111.618 58.2147 111.455 58.1291C111.311 58.0523 111.168 57.9755 111.026 57.8939C110.872 57.8092 110.722 57.7267 110.57 57.6373C110.433 57.558 110.296 57.4787 110.158 57.3958C110.014 57.3074 109.865 57.2168 109.724 57.1269C109.594 57.0451 109.463 56.9598 109.336 56.8768C109.198 56.7859 109.063 56.6902 108.926 56.599L108.924 56.5955C104.407 53.5274 100.744 49.0377 98.6792 43.4771C96.6133 37.913 96.4576 32.117 97.8767 26.841C97.9053 26.7318 97.9351 26.626 97.9636 26.5169C98.0118 26.357 98.0586 26.1937 98.1068 26.0337C98.152 25.8868 98.1994 25.7351 98.248 25.5868C98.2982 25.4223 98.3531 25.26 98.4114 25.0962C98.4622 24.9432 98.5175 24.7925 98.5728 24.6418C98.6299 24.4747 98.6914 24.31 98.7542 24.1485C98.8151 23.9918 98.8771 23.8386 98.9393 23.6854C99.0064 23.5145 99.0782 23.3459 99.1532 23.176C99.2221 23.0203 99.293 22.8598 99.3619 22.7041C99.4391 22.5295 99.521 22.3571 99.6063 22.1833C99.6839 22.0204 99.763 21.8609 99.8453 21.7002C99.9326 21.5218 100.026 21.3491 100.118 21.173C100.207 21.0097 100.295 20.843 100.387 20.6785C100.492 20.4939 100.601 20.3115 100.706 20.1302C100.807 19.9585 100.913 19.789 101.016 19.6208C101.137 19.4299 101.256 19.2437 101.382 19.055C101.496 18.8782 101.616 18.7037 101.739 18.528C101.877 18.3308 102.018 18.1325 102.162 17.9409C102.3 17.7554 102.439 17.5699 102.58 17.3913C102.74 17.1819 102.903 16.9795 103.072 16.7827C103.232 16.5849 103.396 16.3941 103.564 16.2056C103.754 15.9849 103.951 15.7699 104.152 15.5571C104.35 15.3455 104.55 15.1409 104.755 14.9386C104.997 14.6991 105.243 14.4619 105.496 14.2338C105.75 13.9976 106.011 13.7703 106.278 13.5489C106.598 13.2723 106.929 13.0073 107.268 12.7514C107.635 12.4691 108.014 12.1981 108.401 11.9363C110.069 10.8042 111.9 9.85219 113.87 9.12062C115.84 8.38905 117.849 7.91544 119.852 7.68477C120.315 7.63096 120.78 7.58871 121.242 7.56289C121.666 7.53569 122.09 7.52013 122.513 7.52117C122.86 7.51468 123.206 7.5163 123.555 7.52836C123.893 7.53725 124.234 7.55656 124.573 7.58053C124.86 7.59997 125.149 7.62304 125.434 7.65532C125.725 7.68531 126.014 7.71983 126.303 7.76266C126.553 7.79606 126.802 7.83399 127.052 7.87878C127.309 7.91775 127.568 7.96358 127.822 8.01891C128.049 8.06089 128.275 8.1111 128.498 8.16258C128.735 8.21238 128.968 8.27194 129.205 8.33004C129.409 8.38429 129.614 8.43873 129.819 8.49624C130.035 8.5585 130.249 8.62064 130.462 8.6875C130.653 8.74677 130.841 8.80724 131.03 8.8713C131.231 8.93839 131.429 9.00693 131.629 9.07881C131.806 9.14309 131.98 9.20858 132.156 9.27765C132.339 9.34769 132.524 9.42107 132.706 9.49923C132.873 9.56726 133.037 9.63674 133.203 9.7093C133.38 9.78541 133.555 9.86253 133.727 9.94443C133.885 10.0162 134.043 10.0915 134.193 10.1658C134.361 10.2455 134.526 10.3265 134.688 10.4122C134.835 10.4877 134.982 10.5632 135.13 10.6423C135.283 10.7237 135.438 10.8083 135.59 10.8977C135.734 10.9745 135.87 11.0538 136.009 11.1366C136.16 11.2227 136.307 11.3098 136.453 11.4018C136.59 11.481 136.721 11.5664 136.851 11.6482C136.995 11.7366 137.134 11.831 137.275 11.9208C137.402 12.0039 137.526 12.0883 137.65 12.176C137.788 12.2669 137.918 12.3605 138.05 12.4575C138.174 12.5418 138.294 12.6274 138.412 12.7177C138.542 12.8113 138.666 12.9072 138.794 13.0018C138.907 13.0898 139.02 13.1779 139.135 13.2695C139.259 13.3655 139.379 13.4628 139.501 13.5635C139.611 13.6528 139.722 13.7457 139.829 13.8362C139.946 13.9347 140.065 14.0366 140.175 14.1377C140.282 14.2283 140.388 14.3188 140.489 14.4155C140.603 14.5153 140.714 14.6162 140.822 14.7219C140.925 14.8138 141.025 14.9068 141.123 15.0047C141.23 15.1069 141.334 15.2105 141.437 15.314C141.534 15.4083 141.631 15.5061 141.724 15.6017C141.828 15.7051 141.93 15.8134 142.027 15.9195C142.12 16.0151 142.211 16.1155 142.3 16.2122C142.397 16.3184 142.494 16.4243 142.593 16.5338C142.679 16.6319 142.765 16.7299 142.849 16.8328C142.946 16.9387 143.037 17.0473 143.128 17.1593C143.214 17.2574 143.299 17.3603 143.375 17.4621C143.468 17.5693 143.555 17.6792 143.639 17.7901C143.722 17.8894 143.799 17.9948 143.879 18.0954C143.962 18.2064 144.047 18.321 144.13 18.432C144.207 18.5339 144.284 18.6392 144.357 18.7423C144.437 18.8545 144.517 18.9669 144.595 19.0839C144.668 19.187 144.741 19.2903 144.811 19.398C144.888 19.5116 144.965 19.6251 145.043 19.742C145.109 19.8476 145.178 19.952 145.246 20.0611C145.319 20.1759 145.389 20.292 145.459 20.4079C145.525 20.5135 145.592 20.6227 145.652 20.7307C145.725 20.8454 145.793 20.9662 145.86 21.0836C145.924 21.194 145.986 21.3008 146.046 21.4089C146.114 21.5296 146.177 21.6482 146.237 21.768C146.299 21.8748 146.357 21.9877 146.413 22.0971C146.476 22.2155 146.536 22.3354 146.592 22.4564C146.651 22.5645 146.707 22.6738 146.758 22.7893C146.818 22.909 146.878 23.0289 146.932 23.1547C146.988 23.264 147.038 23.3794 147.088 23.4912C147.144 23.6122 147.198 23.738 147.251 23.8604C147.302 23.9757 147.351 24.0876 147.397 24.2007C147.447 24.3242 147.501 24.45 147.551 24.5736C147.593 24.688 147.641 24.8046 147.683 24.919C147.727 25.0263 147.765 25.1303 147.805 25.2379Z" fill="#00DE93"/>
<path d="M146.456 25.7394C151.632 39.679 144.828 55.0606 131.262 60.0976C124.46 62.6229 117.248 62.0663 111.094 59.1288C106.669 57.0125 102.791 53.6633 100.008 49.3401C98.9462 47.691 98.0433 45.9 97.3302 43.9794C92.1559 30.0434 98.9583 14.6582 112.521 9.62257C118.702 7.32768 125.224 7.57644 130.982 9.84886C135.556 11.6534 139.648 14.7336 142.704 18.8293C144.241 20.8895 145.514 23.2017 146.456 25.7394Z" fill="#10F4A7"/>
<path d="M142.914 27.0571C143.538 28.7384 143.959 30.4401 144.191 32.1408C145.587 42.5176 139.887 52.7558 129.911 56.4599C128.163 57.1088 126.385 57.5205 124.608 57.707C116.246 58.603 107.937 54.5877 103.223 47.3519C102.289 45.9117 101.498 44.3478 100.873 42.6665C100.249 40.9852 99.8271 39.28 99.5983 37.5782C98.1978 27.1992 103.899 16.9645 113.872 13.2616C120.373 10.8477 127.311 11.7193 132.933 15.052C135.942 16.8299 138.572 19.3128 140.56 22.3698C141.497 23.8084 142.29 25.3758 142.914 27.0571Z" fill="#02B076"/>
<path d="M142.879 27.0522C143.503 28.7326 143.927 30.4319 144.167 32.1288C145.608 42.4825 140.091 52.6484 130.334 56.2709C128.625 56.9055 126.884 57.3034 125.143 57.4769C117.355 57.9282 109.701 53.9575 105.257 47.0644C104.345 45.6372 103.568 44.0921 102.952 42.4325C102.337 40.7764 101.916 39.0957 101.679 37.4172C100.252 27.1924 105.702 17.158 115.333 13.5821C121.311 11.3623 127.692 12.0761 133.007 15.0149C135.97 16.8082 138.567 19.3017 140.537 22.3629C141.466 23.8038 142.255 25.3719 142.879 27.0522Z" fill="#00DE93"/>
<path d="M132.198 45.0894C131.281 45.4574 130.29 45.6079 129.305 45.5291C128.462 45.4611 127.657 45.1485 126.989 44.6296C126.321 44.0863 125.816 43.3677 125.532 42.554C125.478 42.4072 125.423 42.2605 125.378 42.1018C125.333 41.9432 125.282 41.7839 125.24 41.6161C124.121 41.9729 122.945 42.1141 121.773 42.0319C120.664 41.9532 119.582 41.6538 118.589 41.1514C117.581 40.6375 116.683 39.9306 115.947 39.0707C115.163 38.1594 114.551 37.1132 114.141 35.9831C113.71 34.8469 113.504 33.6378 113.534 32.4231C113.562 31.2407 113.832 30.0768 114.326 29.0031C114.834 27.9025 115.555 26.9139 116.447 26.0944C117.431 25.2011 118.581 24.5119 119.832 24.0665C121.067 23.5891 122.381 23.3496 123.705 23.3606C124.903 23.3729 126.087 23.6263 127.186 24.1058C128.259 24.5793 129.222 25.2711 130.014 26.1374C130.854 27.0639 131.503 28.147 131.925 29.3246L135.267 38.3246C135.587 39.1683 135.712 40.0735 135.633 40.9722C135.555 41.8553 135.222 42.6964 134.675 43.3931C134.025 44.1802 133.167 44.7681 132.198 45.0894ZM124.504 37.5386C124.616 37.4969 124.724 37.457 124.829 37.418C124.936 37.3686 125.039 37.3082 125.134 37.2378C125.289 36.6552 125.48 36.083 125.707 35.5248C125.951 34.917 126.237 34.3271 126.563 33.7594C126.894 33.1812 127.268 32.6285 127.68 32.1059L127.206 30.8289C126.985 30.2157 126.654 29.6482 126.229 29.1543C125.834 28.6984 125.355 28.3242 124.817 28.053C124.283 27.7899 123.703 27.6363 123.109 27.6013C122.483 27.563 121.855 27.6593 121.269 27.8838C120.686 28.0957 120.157 28.4347 119.72 28.8764C119.298 29.3044 118.968 29.8154 118.752 30.3772C118.528 30.9699 118.417 31.5993 118.424 32.2331C118.43 32.9241 118.559 33.6087 118.805 34.2545C119.03 34.881 119.358 35.4657 119.775 35.9847C120.15 36.4552 120.61 36.8509 121.131 37.1514C121.625 37.433 122.172 37.609 122.737 37.6684C123.329 37.7309 123.927 37.687 124.504 37.5386ZM130.586 41.3374C130.715 41.2929 130.833 41.2176 130.927 41.1181C131.022 41.0185 131.091 40.8975 131.129 40.7654C131.212 40.4408 131.182 40.0977 131.045 39.7916L129.683 36.1222C129.46 36.4933 129.284 36.8913 129.161 37.3068C129.055 37.6744 128.984 38.0513 128.948 38.4325C128.915 38.7863 128.927 39.1429 128.984 39.4937C129.036 39.828 129.121 40.1564 129.237 40.4743C129.315 40.7016 129.444 40.908 129.614 41.0776C129.748 41.2101 129.912 41.3096 130.091 41.3679C130.255 41.4131 130.429 41.4024 130.586 41.3374Z" fill="#02B076"/>
<path d="M130.251 44.9785C129.333 45.3466 128.343 45.497 127.357 45.4183C126.514 45.3502 125.71 45.0376 125.042 44.5187C124.373 43.9755 123.869 43.2568 123.585 42.4432C123.53 42.2964 123.476 42.1496 123.431 41.991C123.385 41.8323 123.335 41.673 123.292 41.5052C122.173 41.8621 120.997 42.0032 119.825 41.9211C118.716 41.8423 117.634 41.543 116.642 41.0406C115.633 40.5266 114.735 39.8197 113.999 38.9599C113.215 38.0485 112.604 37.0023 112.194 35.8723C111.763 34.7361 111.556 33.5269 111.586 32.3123C111.614 31.1299 111.884 29.966 112.378 28.8922C112.887 27.7917 113.608 26.8031 114.5 25.9835C115.483 25.0903 116.633 24.4011 117.885 23.9557C119.119 23.4782 120.433 23.2387 121.758 23.2498C122.956 23.2621 124.14 23.5155 125.238 23.9949C126.311 24.4684 127.274 25.1603 128.066 26.0265C128.906 26.953 129.555 28.0361 129.977 29.2138L133.319 38.2137C133.639 39.0575 133.764 39.9627 133.685 40.8613C133.607 41.7445 133.275 42.5856 132.728 43.2822C132.077 44.0694 131.219 44.6572 130.251 44.9785ZM122.556 37.4278C122.668 37.386 122.776 37.3462 122.881 37.3072C122.989 37.2577 123.091 37.1973 123.186 37.1269C123.341 36.5443 123.532 35.9722 123.759 35.4139C124.003 34.8061 124.289 34.2162 124.615 33.6485C124.946 33.0704 125.32 32.5177 125.733 31.995L125.259 30.718C125.037 30.1049 124.706 29.5373 124.281 29.0434C123.887 28.5875 123.407 28.2134 122.869 27.9421C122.336 27.6791 121.755 27.5255 121.162 27.4904C120.535 27.4521 119.908 27.5484 119.321 27.7729C118.738 27.9849 118.209 28.3239 117.772 28.7655C117.35 29.1936 117.02 29.7045 116.804 30.2664C116.58 30.8591 116.469 31.4885 116.476 32.1223C116.482 32.8133 116.611 33.4978 116.857 34.1437C117.082 34.7702 117.41 35.3549 117.827 35.8739C118.202 36.3443 118.662 36.7401 119.183 37.0406C119.677 37.3222 120.224 37.4982 120.79 37.5575C121.382 37.6201 121.98 37.5761 122.556 37.4278ZM128.638 41.2266C128.768 41.182 128.885 41.1068 128.98 41.0072C129.074 40.9077 129.143 40.7867 129.181 40.6546C129.264 40.33 129.234 39.9868 129.098 39.6808L127.735 36.0113C127.512 36.3824 127.337 36.7805 127.214 37.196C127.107 37.5636 127.036 37.9405 127.001 38.3216C126.968 38.6754 126.98 39.032 127.036 39.3829C127.089 39.7171 127.173 40.0455 127.289 40.3634C127.367 40.5908 127.496 40.7972 127.666 40.9667C127.801 41.0993 127.964 41.1987 128.143 41.2571C128.307 41.3022 128.481 41.2915 128.638 41.2266Z" fill="white"/>
</g>
<g filter="url(#filter2_f_4038_330)">
<path d="M221.29 274.781L221.263 274.833C221.206 274.941 221.148 275.053 221.088 275.159C221.026 275.277 220.959 275.396 220.894 275.512C220.834 275.619 220.769 275.727 220.709 275.833C220.641 275.948 220.571 276.065 220.503 276.18C220.44 276.285 220.375 276.393 220.312 276.497C220.239 276.613 220.168 276.726 220.093 276.837C220.028 276.945 219.962 277.048 219.892 277.15C219.821 277.263 219.746 277.374 219.668 277.483C219.6 277.59 219.531 277.691 219.458 277.791C219.384 277.902 219.304 278.015 219.223 278.122C219.154 278.224 219.078 278.322 219.003 278.425C218.922 278.532 218.841 278.64 218.755 278.75C218.683 278.849 218.605 278.951 218.526 279.047C218.445 279.155 218.358 279.259 218.274 279.366C218.195 279.462 218.114 279.562 218.032 279.656C217.946 279.766 217.855 279.868 217.768 279.973C217.684 280.071 217.602 280.165 217.516 280.258C217.424 280.364 217.33 280.466 217.237 280.567C217.153 280.665 217.067 280.758 216.979 280.849C216.885 280.95 216.786 281.053 216.689 281.152C216.601 281.244 216.51 281.338 216.419 281.428C216.322 281.527 216.222 281.625 216.121 281.723C216.03 281.813 215.933 281.904 215.838 281.992C215.738 282.089 215.633 282.189 215.526 282.283C215.43 282.375 215.332 282.461 215.233 282.547C215.128 282.647 215.019 282.739 214.909 282.832C214.811 282.918 214.708 283.006 214.61 283.093C214.497 283.184 214.382 283.278 214.269 283.369C214.165 283.452 214.058 283.538 213.954 283.621C213.838 283.711 213.722 283.8 213.606 283.89C213.496 283.974 213.389 284.055 213.278 284.135C213.157 284.226 213.035 284.312 212.912 284.398C212.799 284.481 212.689 284.561 212.571 284.637C212.447 284.726 212.321 284.811 212.193 284.893C212.079 284.971 211.96 285.051 211.839 285.125C211.71 285.208 211.577 285.292 211.448 285.375C211.324 285.448 211.199 285.524 211.075 285.597C210.94 285.677 210.805 285.756 210.667 285.834C210.541 285.91 210.414 285.981 210.284 286.051C210.141 286.13 210 286.206 209.855 286.28C209.723 286.353 209.59 286.421 209.454 286.487C209.307 286.565 209.159 286.638 209.008 286.709C208.872 286.775 208.734 286.844 208.594 286.909C208.44 286.978 208.284 287.051 208.126 287.119C207.979 287.183 207.833 287.244 207.687 287.306C207.528 287.376 207.365 287.438 207.202 287.502C207.051 287.565 206.898 287.623 206.746 287.68C206.574 287.745 206.404 287.805 206.234 287.867C206.073 287.924 205.915 287.979 205.749 288.03C205.574 288.093 205.395 288.148 205.212 288.203C205.041 288.256 204.872 288.308 204.702 288.353C204.514 288.409 204.325 288.46 204.137 288.507C203.961 288.557 203.78 288.6 203.602 288.644C203.401 288.693 203.199 288.737 202.997 288.782C202.808 288.825 202.618 288.862 202.424 288.898C202.211 288.941 201.996 288.978 201.778 289.014C201.572 289.049 201.367 289.083 201.163 289.109C200.929 289.145 200.698 289.174 200.466 289.198C200.243 289.228 200.02 289.249 199.8 289.267C199.548 289.289 199.298 289.308 199.047 289.322C198.802 289.34 198.561 289.351 198.314 289.355C198.036 289.368 197.757 289.372 197.48 289.373C197.205 289.37 196.93 289.368 196.655 289.357C196.335 289.348 196.015 289.33 195.697 289.309C195.375 289.287 195.056 289.261 194.738 289.223C194.352 289.184 193.968 289.133 193.585 289.073C193.185 289.014 192.784 288.941 192.387 288.862C190.065 288.391 187.772 287.588 185.577 286.435C183.381 285.282 181.418 283.851 179.711 282.207C179.421 281.925 179.133 281.636 178.857 281.341C178.591 281.059 178.331 280.772 178.079 280.477C177.87 280.234 177.665 279.988 177.464 279.737C177.266 279.487 177.07 279.233 176.88 278.975C176.715 278.755 176.557 278.53 176.399 278.305C176.242 278.076 176.088 277.845 175.94 277.608C175.807 277.405 175.675 277.198 175.551 276.987C175.42 276.772 175.294 276.555 175.169 276.335C175.059 276.143 174.951 275.945 174.847 275.748C174.735 275.543 174.63 275.334 174.528 275.126C174.433 274.942 174.342 274.752 174.254 274.564C174.163 274.366 174.072 274.168 173.982 273.966C173.905 273.788 173.828 273.61 173.753 273.428C173.674 273.237 173.599 273.047 173.526 272.854C173.457 272.684 173.394 272.509 173.331 272.334C173.264 272.152 173.198 271.968 173.138 271.781C173.08 271.613 173.025 271.447 172.972 271.277C172.916 271.097 172.86 270.917 172.809 270.736C172.76 270.572 172.712 270.409 172.668 270.244C172.622 270.069 172.575 269.895 172.531 269.717C172.492 269.559 172.453 269.4 172.419 269.241C172.379 269.069 172.34 268.903 172.305 268.73C172.273 268.575 172.24 268.42 172.209 268.262C172.179 268.096 172.147 267.924 172.119 267.759C172.093 267.608 172.069 267.453 172.046 267.303C172.022 267.14 172.003 266.976 171.979 266.813L171.98 266.809C171.244 261.398 172.137 255.673 174.894 250.421C177.653 245.166 181.861 241.177 186.734 238.707C186.834 238.656 186.933 238.607 187.033 238.555C187.184 238.485 187.337 238.41 187.488 238.339C187.628 238.275 187.772 238.208 187.915 238.146C188.071 238.073 188.229 238.005 188.389 237.939C188.537 237.875 188.686 237.815 188.835 237.756C188.998 237.687 189.161 237.622 189.324 237.561C189.481 237.502 189.636 237.445 189.792 237.389C189.964 237.325 190.137 237.266 190.314 237.208C190.476 237.155 190.642 237.101 190.804 237.048C190.986 236.989 191.169 236.934 191.355 236.882C191.528 236.831 191.7 236.783 191.874 236.737C192.065 236.683 192.256 236.636 192.448 236.587C192.629 236.545 192.812 236.498 192.996 236.457C193.203 236.411 193.412 236.371 193.617 236.328C193.813 236.289 194.01 236.254 194.203 236.218C194.426 236.181 194.644 236.145 194.869 236.112C195.077 236.079 195.286 236.052 195.499 236.026C195.738 235.996 195.98 235.969 196.219 235.948C196.449 235.927 196.68 235.906 196.907 235.892C197.17 235.871 197.429 235.857 197.688 235.851C197.943 235.838 198.194 235.832 198.447 235.831C198.738 235.826 199.029 235.828 199.322 235.836C199.612 235.842 199.898 235.854 200.185 235.871C200.525 235.891 200.866 235.915 201.204 235.951C201.55 235.982 201.893 236.025 202.237 236.076C202.656 236.128 203.075 236.198 203.491 236.279C203.947 236.364 204.402 236.465 204.855 236.577C206.812 237.062 208.744 237.788 210.604 238.765C212.465 239.742 214.16 240.919 215.67 242.255C216.02 242.564 216.361 242.881 216.69 243.208C216.993 243.505 217.288 243.81 217.57 244.125C217.806 244.379 218.036 244.638 218.261 244.906C218.48 245.163 218.693 245.43 218.902 245.698C219.08 245.925 219.256 246.155 219.422 246.388C219.594 246.625 219.762 246.863 219.923 247.107C220.065 247.315 220.203 247.525 220.337 247.742C220.479 247.959 220.618 248.182 220.747 248.408C220.868 248.605 220.981 248.807 221.092 249.007C221.213 249.217 221.325 249.43 221.44 249.645C221.536 249.833 221.632 250.021 221.727 250.213C221.824 250.415 221.922 250.616 222.014 250.819C222.098 251.001 222.178 251.181 222.256 251.364C222.341 251.559 222.423 251.752 222.502 251.948C222.573 252.123 222.641 252.297 222.707 252.473C222.777 252.656 222.846 252.843 222.91 253.031C222.971 253.201 223.029 253.369 223.085 253.541C223.147 253.724 223.207 253.905 223.261 254.088C223.312 254.253 223.362 254.421 223.408 254.583C223.46 254.761 223.51 254.937 223.555 255.115C223.597 255.275 223.639 255.435 223.679 255.598C223.721 255.766 223.761 255.938 223.796 256.111C223.835 256.269 223.867 256.424 223.898 256.582C223.935 256.752 223.969 256.92 223.998 257.089C224.03 257.244 224.055 257.399 224.081 257.551C224.111 257.717 224.134 257.883 224.161 258.048C224.184 258.198 224.204 258.346 224.222 258.498C224.246 258.661 224.264 258.82 224.28 258.983C224.3 259.131 224.316 259.278 224.328 259.426C224.345 259.586 224.357 259.742 224.372 259.9C224.382 260.043 224.392 260.186 224.401 260.333C224.412 260.489 224.42 260.644 224.427 260.802C224.434 260.943 224.439 261.088 224.443 261.228C224.448 261.381 224.451 261.537 224.45 261.687C224.454 261.827 224.457 261.967 224.453 262.106C224.455 262.258 224.454 262.407 224.447 262.559C224.448 262.697 224.446 262.833 224.438 262.971C224.433 263.119 224.426 263.266 224.418 263.412C224.412 263.547 224.405 263.685 224.396 263.818C224.388 263.964 224.375 264.112 224.361 264.255C224.352 264.388 224.339 264.523 224.327 264.654C224.312 264.797 224.298 264.94 224.283 265.086C224.267 265.216 224.252 265.346 224.232 265.477C224.218 265.62 224.197 265.76 224.175 265.903C224.16 266.033 224.139 266.164 224.115 266.289C224.097 266.43 224.074 266.568 224.047 266.704C224.029 266.832 224.002 266.961 223.98 267.087C223.953 267.223 223.925 267.363 223.898 267.499C223.873 267.624 223.847 267.752 223.818 267.875C223.788 268.009 223.758 268.144 223.723 268.28C223.695 268.403 223.667 268.527 223.634 268.651C223.601 268.784 223.568 268.917 223.533 269.053C223.499 269.173 223.467 269.294 223.431 269.417C223.395 269.549 223.355 269.678 223.316 269.808C223.281 269.928 223.245 270.051 223.204 270.167C223.168 270.298 223.124 270.429 223.081 270.557C223.041 270.679 223.004 270.797 222.963 270.913C222.919 271.044 222.873 271.171 222.824 271.295C222.786 271.413 222.74 271.531 222.696 271.646C222.65 271.772 222.601 271.897 222.549 272.02C222.508 272.136 222.464 272.251 222.412 272.365C222.363 272.49 222.314 272.615 222.257 272.739C222.213 272.854 222.161 272.968 222.11 273.08C222.058 273.203 222.001 273.327 221.945 273.448C221.893 273.563 221.843 273.674 221.789 273.784C221.731 273.904 221.673 274.028 221.615 274.148C221.558 274.256 221.503 274.369 221.446 274.477C221.395 274.581 221.344 274.679 221.29 274.781Z" fill="#00DE93"/>
<path d="M220.016 274.112C213.104 287.277 197.114 292.494 184.302 285.767C177.878 282.395 173.472 276.657 171.545 270.116C170.163 265.41 170.064 260.287 171.42 255.327C171.937 253.435 172.666 251.567 173.619 249.753C180.529 236.591 196.52 231.371 209.33 238.096C215.167 241.161 219.341 246.18 221.497 251.981C223.211 256.59 223.654 261.693 222.649 266.703C222.144 269.223 221.274 271.715 220.016 274.112Z" fill="#10F4A7"/>
<path d="M216.669 272.358C215.835 273.946 214.85 275.396 213.74 276.705C206.953 284.678 195.527 287.279 186.105 282.332C184.455 281.465 182.96 280.418 181.634 279.22C175.379 273.598 172.814 264.733 175.048 256.391C175.495 254.734 176.129 253.1 176.963 251.512C177.797 249.924 178.783 248.471 179.897 247.163C186.682 239.186 198.106 236.588 207.525 241.533C213.665 244.757 217.653 250.501 218.93 256.91C219.618 260.337 219.529 263.953 218.583 267.474C218.138 269.133 217.502 270.77 216.669 272.358Z" fill="#02B076"/>
<path d="M216.648 272.328C215.815 273.915 214.835 275.367 213.732 276.679C206.993 284.67 195.743 287.358 186.528 282.52C184.914 281.673 183.455 280.644 182.162 279.464C176.622 273.972 174.462 265.625 176.621 257.712C177.072 256.079 177.703 254.47 178.526 252.902C179.347 251.338 180.316 249.901 181.407 248.604C188.06 240.709 199.166 238.059 208.263 242.834C213.909 245.799 217.642 251.023 219.007 256.94C219.653 260.343 219.533 263.941 218.572 267.453C218.121 269.107 217.481 270.741 216.648 272.328Z" fill="#00DE93"/>
<path d="M196.093 276.435C195.206 275.998 194.432 275.362 193.832 274.576C193.32 273.904 193.014 273.096 192.954 272.252C192.911 271.392 193.109 270.536 193.524 269.781C193.597 269.643 193.67 269.504 193.758 269.365C193.846 269.225 193.931 269.081 194.027 268.937C193.014 268.343 192.123 267.562 191.401 266.636C190.718 265.758 190.218 264.753 189.929 263.679C189.637 262.585 189.563 261.445 189.71 260.322C189.865 259.131 190.235 257.976 190.801 256.916C191.358 255.836 192.12 254.875 193.044 254.085C193.942 253.316 194.988 252.739 196.118 252.389C197.276 252.032 198.493 251.908 199.699 252.024C201.021 252.159 202.302 252.554 203.47 253.187C204.65 253.787 205.706 254.604 206.583 255.597C207.374 256.496 207.977 257.546 208.354 258.684C208.719 259.799 208.848 260.977 208.732 262.145C208.604 263.389 208.233 264.596 207.638 265.697L203.176 274.197C202.762 274.999 202.172 275.697 201.451 276.239C200.742 276.771 199.894 277.086 199.01 277.144C197.99 277.186 196.979 276.941 196.093 276.435ZM196.568 265.665C196.675 265.72 196.776 265.774 196.875 265.826C196.984 265.873 197.097 265.909 197.213 265.933C197.75 265.658 198.304 265.418 198.871 265.214C199.486 264.989 200.116 264.808 200.756 264.672C201.408 264.531 202.068 264.44 202.733 264.398L203.366 263.192C203.675 262.618 203.875 261.992 203.959 261.346C204.034 260.747 203.992 260.141 203.835 259.559C203.674 258.986 203.4 258.452 203.03 257.987C202.639 257.495 202.149 257.093 201.59 256.807C201.042 256.514 200.437 256.347 199.816 256.318C199.215 256.289 198.615 256.385 198.053 256.6C197.462 256.83 196.92 257.168 196.453 257.596C195.943 258.062 195.519 258.616 195.203 259.23C194.888 259.817 194.672 260.451 194.565 261.108C194.465 261.702 194.478 262.308 194.603 262.897C194.723 263.453 194.958 263.977 195.292 264.437C195.641 264.92 196.073 265.335 196.568 265.665ZM197.806 272.728C197.926 272.795 198.061 272.832 198.198 272.836C198.335 272.839 198.471 272.81 198.595 272.75C198.892 272.594 199.127 272.343 199.264 272.037L201.083 268.571C200.658 268.653 200.245 268.789 199.853 268.975C199.509 269.141 199.181 269.34 198.874 269.569C198.588 269.781 198.331 270.028 198.108 270.304C197.894 270.567 197.706 270.849 197.547 271.148C197.43 271.358 197.363 271.591 197.35 271.831C197.342 272.02 197.377 272.208 197.453 272.38C197.529 272.532 197.653 272.655 197.806 272.728Z" fill="#02B076"/>
<path d="M194.874 274.912C193.987 274.475 193.213 273.839 192.613 273.053C192.101 272.381 191.796 271.573 191.735 270.73C191.692 269.869 191.89 269.014 192.306 268.259C192.378 268.12 192.451 267.981 192.539 267.842C192.627 267.702 192.712 267.558 192.808 267.414C191.795 266.82 190.904 266.04 190.182 265.113C189.5 264.235 188.999 263.23 188.71 262.156C188.418 261.063 188.344 259.922 188.492 258.8C188.646 257.608 189.016 256.454 189.582 255.394C190.14 254.314 190.901 253.352 191.825 252.563C192.723 251.794 193.769 251.216 194.899 250.867C196.057 250.509 197.274 250.385 198.48 250.501C199.802 250.636 201.083 251.031 202.251 251.664C203.431 252.264 204.487 253.081 205.364 254.074C206.155 254.974 206.758 256.024 207.135 257.161C207.5 258.276 207.629 259.455 207.513 260.623C207.385 261.867 207.014 263.074 206.42 264.174L201.957 272.674C201.543 273.476 200.953 274.174 200.232 274.716C199.523 275.248 198.675 275.563 197.791 275.621C196.771 275.664 195.76 275.418 194.874 274.912ZM195.35 264.142C195.456 264.198 195.557 264.251 195.656 264.303C195.765 264.35 195.878 264.386 195.995 264.41C196.531 264.136 197.085 263.896 197.652 263.691C198.267 263.467 198.897 263.285 199.537 263.149C200.189 263.009 200.849 262.917 201.514 262.875L202.147 261.669C202.456 261.095 202.656 260.469 202.74 259.823C202.816 259.225 202.773 258.618 202.616 258.036C202.455 257.464 202.181 256.929 201.811 256.464C201.421 255.973 200.93 255.57 200.371 255.284C199.823 254.992 199.218 254.825 198.597 254.795C197.996 254.767 197.396 254.863 196.834 255.077C196.243 255.307 195.701 255.645 195.234 256.074C194.724 256.54 194.301 257.093 193.985 257.708C193.669 258.294 193.453 258.929 193.346 259.586C193.246 260.179 193.259 260.786 193.384 261.374C193.504 261.93 193.739 262.454 194.073 262.915C194.422 263.397 194.854 263.812 195.35 264.142ZM196.587 271.205C196.707 271.272 196.842 271.309 196.979 271.313C197.116 271.317 197.253 271.287 197.376 271.227C197.673 271.072 197.908 270.821 198.045 270.514L199.864 267.049C199.439 267.131 199.026 267.266 198.634 267.452C198.29 267.619 197.962 267.818 197.655 268.046C197.369 268.258 197.112 268.505 196.889 268.782C196.675 269.044 196.487 269.326 196.328 269.625C196.211 269.835 196.144 270.069 196.131 270.309C196.123 270.497 196.158 270.685 196.234 270.858C196.31 271.01 196.434 271.132 196.587 271.205Z" fill="white"/>
</g>
<defs>
<filter id="filter0_f_4038_330" x="7.55255" y="146.2" width="73.6073" height="73.9202" filterUnits="userSpaceOnUse" color-interpolation-filters="sRGB">
<feFlood flood-opacity="0" result="BackgroundImageFix"/>
<feBlend mode="normal" in="SourceGraphic" in2="BackgroundImageFix" result="shape"/>
<feGaussianBlur stdDeviation="1" result="effect1_foregroundBlur_4038_330"/>
</filter>
<filter id="filter1_f_4038_330" x="92.5969" y="4.51733" width="59.9401" height="60.1841" filterUnits="userSpaceOnUse" color-interpolation-filters="sRGB">
<feFlood flood-opacity="0" result="BackgroundImageFix"/>
<feBlend mode="normal" in="SourceGraphic" in2="BackgroundImageFix" result="shape"/>
<feGaussianBlur stdDeviation="1.5" result="effect1_foregroundBlur_4038_330"/>
</filter>
<filter id="filter2_f_4038_330" x="167.454" y="232.16" width="60.0012" height="60.2124" filterUnits="userSpaceOnUse" color-interpolation-filters="sRGB">
<feFlood flood-opacity="0" result="BackgroundImageFix"/>
<feBlend mode="normal" in="SourceGraphic" in2="BackgroundImageFix" result="shape"/>
<feGaussianBlur stdDeviation="1.5" result="effect1_foregroundBlur_4038_330"/>
</filter>
<linearGradient id="paint0_linear_4038_330" x1="199.654" y1="118.447" x2="132.816" y2="173.13" gradientUnits="userSpaceOnUse">
<stop stop-color="#00DE93"/>
<stop offset="1" stop-color="#BF8EFF"/>
</linearGradient>
</defs>
</svg>
