<svg width="50" height="50" viewBox="0 0 50 50" fill="none" xmlns="http://www.w3.org/2000/svg">
<path d="M37.4054 0H12.5946C5.63881 0 0 5.63881 0 12.5946V37.4054C0 44.3612 5.63881 50 12.5946 50H37.4054C44.3612 50 50 44.3612 50 37.4054V12.5946C50 5.63881 44.3612 0 37.4054 0Z" fill="#3E0190"/>
<path d="M7.62209 12.1947L7.62209 37.8021C7.62209 40.3292 9.6707 42.3778 12.1978 42.3778C14.7249 42.3778 16.7735 40.3292 16.7735 37.8021V12.1947C16.7735 9.66757 14.7249 7.61896 12.1978 7.61896C9.6707 7.61896 7.62209 9.66757 7.62209 12.1947Z" fill="white"/>
<path d="M20.4243 12.1978L20.4243 37.8053C20.4243 40.3324 22.4729 42.381 25 42.381C27.5271 42.381 29.5757 40.3324 29.5757 37.8053V12.1978C29.5757 9.67074 27.5271 7.62213 25 7.62213C22.4729 7.62213 20.4243 9.67074 20.4243 12.1978Z" fill="white"/>
<path d="M20.4243 27.2862V37.8021C20.4243 40.3292 22.4729 42.3778 25 42.3778C27.5271 42.3778 29.5757 40.3292 29.5757 37.8021V27.2862C29.5757 24.7591 27.5271 22.7105 25 22.7105C22.4729 22.7105 20.4243 24.7591 20.4243 27.2862Z" fill="#00DE93"/>
<path d="M12.1948 33.2296C9.66766 33.2296 7.61905 35.2782 7.61905 37.8053C7.61905 40.3324 9.66766 42.381 12.1948 42.381C14.7218 42.381 16.7705 40.3324 16.7705 37.8053C16.7705 35.2782 14.7218 33.2296 12.1948 33.2296Z" fill="#00DE93"/>
<path d="M33.2265 12.1947V37.8021C33.2265 40.3292 35.2751 42.3778 37.8022 42.3778C40.3293 42.3778 42.3779 40.3292 42.3779 37.8021V12.1947C42.3779 9.66757 40.3293 7.61896 37.8022 7.61896C35.2751 7.61896 33.2265 9.66757 33.2265 12.1947Z" fill="#00DE93"/>
</svg>
