<svg width="991" height="757" viewBox="0 0 991 757" fill="none" xmlns="http://www.w3.org/2000/svg">
<path d="M16 142.95L853.449 142.95C919.475 142.95 973 196.474 973 262.5V262.5" stroke="#3E0190" stroke-width="5" stroke-linecap="round"/>
<path d="M18.5 501V501C18.5 435.653 71.474 382.679 136.821 382.679L853.449 382.679C919.475 382.679 973 329.155 973 263.129V263.129" stroke="#00DE93" stroke-width="5" stroke-linecap="round"/>
<path d="M21 495.957C21 494.576 19.8807 493.457 18.5 493.457C17.1193 493.457 16 494.576 16 495.957L21 495.957ZM974.768 616.046C975.744 615.069 975.744 613.486 974.768 612.51L958.858 596.6C957.881 595.624 956.299 595.624 955.322 596.6C954.346 597.576 954.346 599.159 955.322 600.136L969.464 614.278L955.322 628.42C954.346 629.396 954.346 630.979 955.322 631.955C956.299 632.932 957.881 632.932 958.858 631.955L974.768 616.046ZM136.821 616.778L973 616.778L973 611.778L136.821 611.778L136.821 616.778ZM16 495.957C16 562.684 70.0933 616.778 136.821 616.778L136.821 611.778C72.8547 611.778 21 559.923 21 495.957L16 495.957Z" fill="#00DE93"/>
</svg>
