<svg width="995" height="757" viewBox="0 0 995 757" fill="none" xmlns="http://www.w3.org/2000/svg">
<path d="M20 142.95L857.449 142.95C923.475 142.95 977 196.474 977 262.5V262.5" stroke="#3E0190" stroke-width="5" stroke-linecap="round"/>
<path d="M22.5 501V501C22.5 435.653 75.474 382.679 140.821 382.679L857.449 382.679C923.475 382.679 977 329.155 977 263.129V263.129" stroke="#00DE93" stroke-width="5" stroke-linecap="round"/>
<path d="M25 495.957C25 494.576 23.8807 493.457 22.5 493.457C21.1193 493.457 20 494.576 20 495.957L25 495.957ZM978.768 616.046C979.744 615.069 979.744 613.486 978.768 612.51L962.858 596.6C961.881 595.624 960.299 595.624 959.322 596.6C958.346 597.576 958.346 599.159 959.322 600.136L973.464 614.278L959.322 628.42C958.346 629.396 958.346 630.979 959.322 631.955C960.299 632.932 961.881 632.932 962.858 631.955L978.768 616.046ZM140.821 616.778L977 616.778L977 611.778L140.821 611.778L140.821 616.778ZM20 495.957C20 562.684 74.0933 616.778 140.821 616.778L140.821 611.778C76.8547 611.778 25 559.923 25 495.957L20 495.957Z" fill="#00DE93"/>
<circle cx="17.5" cy="142.949" r="17.5" fill="#3E0190"/>
<circle cx="17.5" cy="142.949" r="6.5" fill="white"/>
<circle cx="297.5" cy="142.949" r="17.5" fill="#3E0190"/>
<circle cx="297.5" cy="142.949" r="6.5" fill="white"/>
<circle cx="633.5" cy="142.949" r="17.5" fill="#3E0190"/>
<circle cx="633.5" cy="142.949" r="6.5" fill="white"/>
<circle cx="794.5" cy="381.949" r="17.5" fill="#00DE93"/>
<circle cx="794.5" cy="381.949" r="6.5" fill="white"/>
<circle cx="611.5" cy="381.949" r="17.5" fill="#00DE93"/>
<circle cx="611.5" cy="381.949" r="6.5" fill="white"/>
<circle cx="407.5" cy="381.949" r="17.5" fill="#00DE93"/>
<circle cx="407.5" cy="381.949" r="6.5" fill="white"/>
<circle cx="157.5" cy="381.949" r="17.5" fill="#00DE93"/>
<circle cx="157.5" cy="381.949" r="6.5" fill="white"/>
<circle cx="157.5" cy="613.949" r="17.5" fill="#00DE93"/>
<circle cx="157.5" cy="613.949" r="6.5" fill="white"/>
<circle cx="401.5" cy="613.949" r="17.5" fill="#00DE93"/>
<circle cx="401.5" cy="613.949" r="6.5" fill="white"/>
<circle cx="760.5" cy="613.949" r="17.5" fill="#00DE93"/>
<circle cx="760.5" cy="613.949" r="6.5" fill="white"/>
</svg>
